<svg width="122" height="33" viewBox="0 0 122 33" fill="none" xmlns="http://www.w3.org/2000/svg">
<path fill-rule="evenodd" clip-rule="evenodd" d="M60.3206 11.0106H57.4524C57.0539 11.0106 56.8149 11.171 56.7087 11.5725L54.7633 18.8796L52.5123 11.5725C52.4069 11.2007 52.144 11.0144 51.7764 11.0116L51.7756 11.0106H49.6973L49.6965 11.0116C49.3289 11.0144 49.066 11.2007 48.9605 11.5725L46.7096 18.8796L44.7642 11.5725C44.6579 11.171 44.419 11.0106 44.0204 11.0106H41.1523C40.6743 11.0106 40.4618 11.305 40.5946 11.7598L44.4191 23.8307C44.5254 24.2053 44.8175 24.3926 45.1894 24.3926H47.7391C48.1107 24.3926 48.4028 24.2053 48.5091 23.8308L50.7364 16.8004L52.9638 23.8308C53.07 24.2053 53.3621 24.3926 53.7338 24.3926H56.2835C56.6554 24.3926 56.9475 24.2053 57.0537 23.8307L60.8783 11.7598C61.011 11.305 60.7986 11.0106 60.3206 11.0106ZM68.0294 20.9969C66.2717 20.9969 64.8468 19.5193 64.8468 17.6966C64.8468 15.874 66.2717 14.3964 68.0294 14.3964C69.787 14.3964 71.212 15.874 71.212 17.6966C71.212 19.5193 69.787 20.9969 68.0294 20.9969ZM74.5293 11.0103H71.8753C71.4508 11.0103 71.212 11.2508 71.212 11.6789V12.2744C70.1237 11.2517 68.723 10.636 67.1945 10.636C63.7301 10.636 60.9217 13.7972 60.9217 17.6966C60.9217 21.5961 63.7301 24.7572 67.1945 24.7572C68.723 24.7572 70.1237 24.1416 71.212 23.1188V23.7144C71.212 24.1421 71.4508 24.383 71.8753 24.383H74.5293C74.9541 24.383 75.1929 24.1421 75.1929 23.7144V11.6789C75.1929 11.2508 74.9541 11.0103 74.5293 11.0103ZM121.165 15.9083V23.7236C121.165 24.1516 120.926 24.3926 120.501 24.3926H117.845C117.42 24.3926 117.181 24.1516 117.181 23.7236V16.2564C117.181 14.9181 116.411 14.3293 115.402 14.3293C114.207 14.3293 113.462 14.9983 113.462 16.5776V23.7236C113.462 24.1516 113.223 24.3926 112.799 24.3926H110.143C109.718 24.3926 109.479 24.1516 109.479 23.7236V11.6796C109.479 11.2513 109.718 11.0106 110.143 11.0106H112.799C113.223 11.0106 113.462 11.2513 113.462 11.6796V12.2327C114.087 11.3028 115.218 10.636 116.916 10.636C119.385 10.636 121.165 12.5627 121.165 15.9083ZM104.157 16.2564C103.746 14.7333 102.575 14.1954 101.403 14.1954C99.9104 14.1954 98.8768 14.9217 98.4669 16.2564H104.157ZM108.123 17.7014C108.123 18.0495 108.096 18.3707 108.07 18.692C108.016 19.1199 107.751 19.3073 107.352 19.3073H98.4831C98.9659 20.8974 100.205 21.5287 101.59 21.5287C102.333 21.5287 103.077 21.2612 103.555 20.8597C103.82 20.6455 104.033 20.512 104.378 20.512H106.928C107.406 20.512 107.671 20.8063 107.458 21.2343C106.423 23.5628 104.245 24.7672 101.536 24.7672C97.1271 24.7672 94.3122 21.6895 94.3122 17.7014C94.3122 13.7137 97.2332 10.636 101.43 10.636C105.308 10.636 108.123 13.6603 108.123 17.7014ZM92.8258 10.796C93.277 10.7159 93.5159 11.0102 93.5159 11.4385V14.5965C93.5159 15.0248 93.3304 15.2389 92.9854 15.2389C91.4973 15.1856 90.0635 15.9348 90.0635 18.076V23.7233C90.0635 24.1516 89.8246 24.3923 89.3993 24.3923H86.744C86.3187 24.3923 86.0798 24.1516 86.0798 23.7233V11.6792C86.0798 11.2513 86.3187 11.0102 86.744 11.0102H89.3993C89.8246 11.0102 90.0635 11.2513 90.0635 11.6792V13.126C90.4597 11.7823 91.5062 10.9957 92.8258 10.7964V10.796ZM83.6642 10.796C84.1154 10.7159 84.3544 11.0102 84.3544 11.4385V14.5965C84.3544 15.0248 84.1689 15.2389 83.8238 15.2389C82.3358 15.1856 80.9018 15.9348 80.9018 18.076V23.7233C80.9018 24.1516 80.6629 24.3923 80.2378 24.3923H77.5821C77.1571 24.3923 76.918 24.1516 76.918 23.7233V11.6792C76.918 11.2513 77.1571 11.0102 77.5821 11.0102H80.2378C80.6629 11.0102 80.9018 11.2513 80.9018 11.6792V13.126C81.2981 11.7823 82.3447 10.9957 83.6642 10.7964V10.796ZM24.8395 21.2333C24.8395 22.9913 23.4252 24.4164 21.6807 24.4164C21.3147 24.4164 21.018 24.1174 21.018 23.7485V9.77198C21.018 9.40309 21.3147 9.10408 21.6807 9.10408H24.1767C24.5428 9.10408 24.8395 9.40309 24.8395 9.77198V21.2333ZM17.8076 24.4164H15.3116C14.9456 24.4164 14.6489 24.1174 14.6489 23.7485V13.6001C14.6489 13.2312 14.9456 12.9322 15.3116 12.9322H17.8076C18.1737 12.9322 18.4704 13.2312 18.4704 13.6001V23.7485C18.4704 24.1174 18.1737 24.4164 17.8076 24.4164ZM11.4386 24.4164H8.9426C8.57654 24.4164 8.27983 24.1174 8.27983 23.7485V11.6975C8.27983 11.3286 8.57654 11.0296 8.9426 11.0296H11.4386C11.8046 11.0296 12.1013 11.3286 12.1013 11.6975V23.7485C12.1013 24.1174 11.8046 24.4164 11.4386 24.4164ZM21.018 0.760254H12.1013C5.41796 0.760254 0 6.22009 0 12.9551V32.0924C0 32.4612 0.296718 32.7603 0.662775 32.7603H21.018C27.7014 32.7603 33.1192 27.3004 33.1192 20.5654V12.9551C33.1192 6.22009 27.7014 0.760254 21.018 0.760254Z" fill="#ffffff"/>
</svg>
